<svg xmlns="http://www.w3.org/2000/svg" viewBox="0 0 1080 1080"><defs><style>.cls-1{fill:#fff;}</style></defs><g id="Layer_3" data-name="Layer 3"><path class="cls-1" d="M649.38,842a5.7,5.7,0,0,0,5.38-5.87,5.49,5.49,0,0,0-5.67-5.5,5.57,5.57,0,0,0-5.58,5.62A5.76,5.76,0,0,0,649.38,842Z"/><path class="cls-1" d="M543.83,778.64a6,6,0,0,0-5.75,6,5.73,5.73,0,0,0,11.45-.29A6,6,0,0,0,543.83,778.64Z"/><path class="cls-1" d="M603.86,729.75h48.08q76.11,0,152.22,0A312.65,312.65,0,0,0,825.1,684.3q-80.07,0-160.12,0A164.25,164.25,0,0,1,603.86,729.75Z"/><path class="cls-1" d="M377.79,580.59q-40.57,0-81.15,0c-2.23,0-3.66.37-4.87,2.61a9.72,9.72,0,0,1-11.51,4.49,10.3,10.3,0,0,1-.14-19.7c4.53-1.33,9.36.2,11.59,4.35,1.35,2.51,3,2.81,5.45,2.81q40.36,0,80.73,0c.13-4,.39-8,.81-12H237.87a295,295,0,0,0,8,89.62q74.5-.06,149-.1A160.52,160.52,0,0,1,377.79,580.59Z"/><path class="cls-1" d="M621.6,816.14a5.73,5.73,0,0,0-.31-11.46,5.73,5.73,0,0,0,.31,11.46Z"/><path class="cls-1" d="M283.27,572.1a5.54,5.54,0,0,0-5.72,5.48,5.47,5.47,0,0,0,5.29,5.86,5.67,5.67,0,1,0,.43-11.34Z"/><path class="cls-1" d="M439.4,790.1a5.77,5.77,0,0,0,5.66-5.65,6,6,0,0,0-5.92-5.8,5.84,5.84,0,0,0-5.45,5.88A5.71,5.71,0,0,0,439.4,790.1Z"/><path class="cls-1" d="M335.93,675.84a5.67,5.67,0,1,0,5.68,5.55A5.61,5.61,0,0,0,335.93,675.84Z"/><path class="cls-1" d="M842.36,606.54q-70.75,0-141.51.09a161.26,161.26,0,0,1-31.28,72q78.75,0,157.51.06A294.53,294.53,0,0,0,842.36,606.54Z"/><path class="cls-1" d="M842.8,600.71a308,308,0,0,0,.09-37.59h-141a159.65,159.65,0,0,1-.22,37.61q69.59.06,139.18.08A14.54,14.54,0,0,0,842.8,600.71Z"/><path class="cls-1" d="M336,726.9a5.66,5.66,0,1,0,5.66,5.59A5.64,5.64,0,0,0,336,726.9Z"/><path class="cls-1" d="M800.91,735.39q-106.17,0-212.35,0a161.8,161.8,0,0,1-48.3,7.36c-.92,0-1.84,0-2.76,0q-46.28,46.68-92.57,93.35a9.46,9.46,0,0,1-7.48,3q-27.51,0-55-.05c2.45,1.5,4.92,3,7.43,4.4a304.4,304.4,0,0,0,63.81,27.36q30.1-30.21,60.21-60.42a8.76,8.76,0,0,1,6.85-2.92c29,.11,58.09,0,87.13.11,2.35,0,3.87-.35,5.14-2.74,2.09-3.94,7-5.54,11.29-4.32a10.28,10.28,0,0,1,.39,19.71,9.93,9.93,0,0,1-11.87-4.46c-1.16-2.06-2.5-2.47-4.61-2.47q-42.88.09-85.77,0a7.64,7.64,0,0,0-5.94,2.59Q488.24,844.24,460,872.59a303,303,0,0,0,36.1,7.64q22.05-22.12,44.06-44.29a7.65,7.65,0,0,1,6-2.5c29.84.09,59.69,0,89.53.09,2.21,0,3.65-.33,4.86-2.61A9.84,9.84,0,0,1,652,826.39a10.33,10.33,0,0,1,.21,19.74,9.94,9.94,0,0,1-11.82-4.58c-1.11-2-2.36-2.57-4.53-2.57q-43.74.09-87.48,0a7.34,7.34,0,0,0-5.66,2.44q-19.8,19.9-39.62,39.79a301.54,301.54,0,0,0,218.59-58q6.39-4.8,12.47-9.86-28.67,0-57.33,0a9,9,0,0,1-7.17-3q-10.5-10.8-21.39-21.23a7.05,7.05,0,0,0-4.41-1.87c-29-.11-58.07-.06-87.1-.13a4.26,4.26,0,0,0-4.25,2.54A9.89,9.89,0,0,1,541,794.3a10.34,10.34,0,0,1-7.54-9.89,10.59,10.59,0,0,1,7.22-9.83c4.52-1.4,9.29.08,11.59,4.25,1.31,2.37,2.9,2.64,5.21,2.64,29.26-.05,58.52,0,87.79-.09a7.27,7.27,0,0,1,5.67,2.35q10.95,11.09,22.2,21.87a7.56,7.56,0,0,0,4.76,1.84q31.55.06,63.07.06A297.5,297.5,0,0,0,800.91,735.39Z"/><path class="cls-1" d="M442,831.07q21.84-22.23,43.84-44.33c.63-.63,1.18-1.34,1.88-2.14-.77-.85-1.41-1.62-2.12-2.33Q463.32,760,441.07,737.64a6.92,6.92,0,0,0-5.38-2.27q-43.21.12-86.45,0c-2.11,0-3.44.35-4.57,2.47a9.75,9.75,0,0,1-11.48,4.58,9.9,9.9,0,0,1-7.42-9.87,10.2,10.2,0,0,1,7.39-10,10,10,0,0,1,11.51,4.64c1.13,2.08,2.44,2.54,4.59,2.53,29.05,0,58.09,0,87.14-.1a9.81,9.81,0,0,1,7.79,3.15C459,747.89,474,762.77,488.92,777.74c.88.88,1.58,1.93,2.57,3.15,5.07-5,9.7-9.53,14.26-14.13,8.06-8.11,16.07-16.26,24.14-24.37a162.82,162.82,0,0,1-114.15-58c-21.94,0-43.89,0-65.83-.05-2.45,0-4.1.34-5.46,2.84-2.19,4-7.27,5.57-11.66,4.19a10.08,10.08,0,0,1-7-9.87,9.89,9.89,0,0,1,7.14-9.75c4.46-1.38,9.33.16,11.59,4.26,1.28,2.32,2.77,2.73,5.14,2.72q30.76-.08,61.53,0A162.84,162.84,0,0,1,398,658.59q-75.33-.08-150.66-.07a303.35,303.35,0,0,0,45.41,97q59,0,117.94-.08a8.55,8.55,0,0,1,6.88,2.85c4.78,5.07,9.82,9.87,14.7,14.84,1.28,1.31,2.34,2,4.4,1.4a9.91,9.91,0,0,1,11.66,4.87,10.27,10.27,0,0,1-14.1,13.9,9.9,9.9,0,0,1-4.66-11.74c.64-2.06,0-3.12-1.3-4.41-4.4-4.31-8.82-8.61-13-13.11a8.12,8.12,0,0,0-6.55-2.76c-27.09.1-54.18.06-81.27.06H297a300.93,300.93,0,0,0,76.68,72.13q31.14,0,62.29,0A7.66,7.66,0,0,0,442,831.07Z"/><path class="cls-1" d="M580.25,422.28a149.21,149.21,0,0,1,43.31,17.89c2.58,1.58,4,1.31,6.05-.78q47.92-48.13,96-96.12c.85-.86,1.65-1.77,3.15-3.38-15.2-9.91-29.92-19.49-44.48-29,36-6.73,55-41.46,45.54-73.53-9.37-31.63-43.67-48.8-75-37.32-15.27,5.59-26.43,16-32.8,31-8.49,19.93-5.88,39,6.38,57.52-17.21-4.94-33.89-8.73-51.44-10.62v3.74q0,68.08-.07,136.19C576.87,420.56,577.61,421.65,580.25,422.28Z"/><path class="cls-1" d="M395.3,311.48,352,339.85c1.09,1.31,1.48,1.86,1.95,2.33q49,49,97.93,98.05c1.63,1.64,2.7,1.27,4.43.35,6.6-3.53,13.13-7.31,20-10.16,8.81-3.63,17.95-6.46,27.15-9.71V277.93a307.94,307.94,0,0,0-52.36,11c22.92-33.47,7.19-72.67-21.76-86.32a57.71,57.71,0,0,0-77.17,28.13c-6.7,14.67-7.16,29.83-1.2,44.76C359.08,295.64,374.43,307.33,395.3,311.48Z"/><path class="cls-1" d="M237.08,543.56c1.82.16,2.49.27,3.16.27q69.12,0,138.24,0c2.34,0,3-.91,3.67-3,1.94-6.75,3.77-13.59,6.47-20.05,3.86-9.21,8.45-18.11,12.5-26.65L299.48,392.54,271,436.16C264.19,398.62,225.36,380,193.71,392c-30.26,11.49-45,45.71-33.19,75.71,11.54,29.22,52.29,49.45,87.07,25.44C244.17,509.57,240.67,526.33,237.08,543.56Z"/><path class="cls-1" d="M892.47,393.45c-13.77-7-28.26-8.55-43-3.84-22.52,7.19-35.58,23.1-40.34,45.63-9.43-14.36-18.85-28.7-28-42.71L679,494.48a160.19,160.19,0,0,1,19.67,47c.71,2.94,2.7,2.32,4.54,2.32q67.74,0,135.48,0h4.92c-3.83-18.06-7.47-35.27-11-52.06,32.61,22.53,71.53,6.17,84.87-21.15C931.52,441.87,920.5,407.69,892.47,393.45Z"/></g></svg>